<?xml version="1.0" standalone="no"?>
<!DOCTYPE svg PUBLIC "-//W3C//DTD SVG 20010904//EN"
 "http://www.w3.org/TR/2001/REC-SVG-20010904/DTD/svg10.dtd">
<svg version="1.0" xmlns="http://www.w3.org/2000/svg"
 width="100pt" height="100pt" viewBox="0 0 3000.000000 3000.000000"
 preserveAspectRatio="xMidYMid meet">

<g transform="translate(0.000000,3000.000000) scale(0.100000,-0.100000)"
fill="red" stroke="none">
<path d="M15195 19991 c-632 -114 -1167 -211 -1187 -215 l-37 -7 150 -184 c83
-102 155 -185 160 -185 8 0 1280 437 1397 481 29 10 58 19 65 19 14 -1 -4 -11
-729 -401 l-540 -292 -69 -231 c-38 -127 -71 -237 -73 -245 -3 -8 87 33 199
91 l205 106 143 -173 143 -174 658 799 c615 746 676 822 668 819 -2 0 -520
-94 -1153 -208z"/>
</g>


<g transform="translate(0.000000,3000.000000) scale(0.100000,-0.100000)"
fill="green" stroke="none">
<path d="M4628 18858 l-2188 -1262 0 -96 c0 -130 17 -396 36 -565 131 -1180
614 -1903 1454 -2179 277 -91 488 -120 855 -120 430 0 780 49 1300 183 1626
420 3828 1587 6260 3320 451 321 1222 898 1212 907 -1 2 -124 -46 -273 -107
-559 -230 -1212 -481 -1765 -679 -322 -116 -896 -310 -916 -310 -7 0 -855 487
-1885 1081 -1030 595 -1879 1084 -1888 1086 -8 2 -999 -565 -2202 -1259z"/>
<path d="M14080 19006 c-19 -13 -226 -143 -460 -288 -1970 -1227 -3651 -2424
-4855 -3457 -1643 -1410 -2558 -2601 -2761 -3593 -25 -120 -28 -155 -28 -348
-1 -190 2 -227 22 -319 30 -134 62 -222 125 -345 124 -243 344 -464 597 -600
47 -25 90 -46 97 -46 6 0 762 433 1680 963 917 530 1901 1098 2186 1262 l517
298 0 1927 0 1927 288 284 c822 811 1709 1609 2472 2224 141 113 167 135 160
134 -3 0 -21 -11 -40 -23z"/>
<path d="M18000 17167 c-114 -27 -196 -88 -248 -185 -66 -123 -62 27 -62
-2299 l0 -2113 375 0 375 0 0 1668 0 1667 683 -685 c375 -377 1109 -1113 1630
-1637 521 -523 968 -965 994 -982 86 -57 147 -75 258 -76 89 0 107 3 162 29
102 47 172 134 210 263 17 54 18 198 21 2201 l2 2142 -380 0 -380 0 -2 -1663
-3 -1663 -1615 1604 c-888 882 -1641 1623 -1673 1647 -103 78 -232 108 -347
82z"/>
<path d="M13550 17109 c-515 -59 -909 -330 -1071 -735 -118 -294 -130 -657
-32 -959 144 -446 496 -740 1005 -837 111 -21 137 -21 1353 -27 1387 -7 1279
-1 1441 -81 135 -66 223 -178 259 -332 19 -83 19 -266 0 -343 -40 -157 -142
-283 -286 -354 -164 -80 -9 -74 -1996 -78 l-1773 -4 0 -394 0 -395 1688 0
c928 0 1757 5 1842 10 392 23 687 135 909 345 185 175 301 398 358 690 24 123
24 469 0 605 -89 513 -366 813 -865 939 -217 55 -190 54 -1527 61 -1373 7
-1264 1 -1398 72 -175 94 -268 284 -253 523 15 251 137 414 366 491 53 18 128
19 1763 22 l1707 2 0 395 0 395 -1707 -1 c-940 -1 -1742 -5 -1783 -10z"/>
<path d="M22920 14845 l0 -2275 390 0 390 0 0 1880 0 1880 1258 0 c1361 0
1363 0 1521 -54 121 -42 198 -91 297 -190 107 -108 161 -203 201 -354 22 -84
26 -118 26 -257 1 -132 -3 -175 -21 -247 -41 -168 -111 -287 -235 -405 -60
-57 -98 -83 -179 -122 -119 -56 -201 -78 -342 -91 -56 -5 -514 -9 -1018 -10
l-918 0 0 -380 0 -380 974 0 c606 0 1013 4 1077 10 358 37 666 161 911 367
240 203 421 524 487 865 103 537 5 1079 -262 1441 -242 330 -646 539 -1131
586 -73 7 -669 11 -1768 11 l-1658 0 0 -2275z"/>
<path d="M12612 11470 c-332 -87 -522 -414 -440 -760 5 -25 28 -83 50 -129 69
-145 204 -256 373 -307 45 -14 91 -18 185 -18 107 1 137 5 206 27 82 27 192
96 246 154 l28 29 -84 83 -84 84 -44 -37 c-24 -21 -72 -52 -108 -69 -59 -29
-73 -32 -160 -32 -78 1 -103 5 -142 24 -237 116 -288 461 -93 640 74 68 123
86 235 86 107 0 163 -20 253 -88 26 -21 49 -37 51 -37 2 0 40 42 84 94 l82 95
-48 40 c-141 122 -391 173 -590 121z"/>
<path d="M13915 11471 c-186 -46 -328 -157 -411 -323 -50 -100 -67 -182 -62
-308 12 -267 163 -467 423 -556 70 -24 95 -28 200 -28 203 0 333 51 466 184
130 130 186 280 176 469 -6 123 -36 213 -102 311 -145 213 -427 316 -690 251z
m319 -260 c279 -137 271 -556 -12 -689 -49 -23 -70 -27 -147 -27 -102 1 -157
20 -230 80 -164 134 -180 401 -35 559 81 88 154 117 277 113 67 -3 92 -9 147
-36z"/>
<path d="M16612 11475 c-128 -29 -218 -93 -267 -191 -27 -54 -30 -68 -30 -160
0 -92 3 -105 30 -159 50 -98 130 -144 358 -206 191 -52 247 -86 247 -151 0
-94 -98 -141 -245 -118 -81 13 -149 42 -233 98 l-59 41 -76 -92 -76 -92 32
-27 c57 -47 135 -90 224 -122 84 -30 95 -31 243 -31 139 0 161 2 213 23 108
44 191 129 219 225 15 53 14 192 -1 232 -49 124 -151 185 -446 266 -137 37
-175 65 -175 130 0 55 14 77 63 100 89 40 224 11 372 -81 l30 -19 68 97 67 97
-28 22 c-41 35 -159 90 -229 107 -91 24 -226 28 -301 11z"/>
<path d="M23212 11475 c-96 -21 -203 -78 -277 -146 -83 -78 -131 -152 -169
-259 -27 -77 -30 -97 -30 -205 0 -107 4 -129 30 -205 56 -159 151 -268 297
-340 137 -68 327 -87 484 -49 65 16 184 71 261 121 l62 40 0 264 0 264 -255 0
-255 0 0 -110 0 -110 130 0 131 0 -3 -92 -3 -93 -60 -30 c-56 -28 -67 -30
-175 -30 -107 0 -119 2 -173 29 -273 139 -267 563 11 697 108 53 279 31 394
-50 l57 -40 81 99 81 99 -43 32 c-150 110 -382 156 -576 114z"/>
<path d="M14970 10870 l0 -600 125 0 125 0 0 380 c0 209 3 380 8 380 4 0 137
-171 296 -380 l288 -380 109 0 109 0 0 600 0 600 -125 0 -125 0 0 -366 c0
-216 -4 -364 -9 -362 -5 2 -133 165 -284 363 l-274 360 -121 3 -122 3 0 -601z"/>
<path d="M17442 11058 c4 -363 6 -420 22 -468 74 -228 231 -333 496 -333 273
0 444 121 505 358 12 48 15 133 15 457 l0 398 -124 0 -124 0 -5 -387 c-4 -425
-6 -434 -65 -504 -53 -62 -102 -83 -197 -83 -69 -1 -87 3 -132 28 -51 28 -89
72 -115 131 -9 22 -13 132 -16 423 l-3 392 -130 0 -130 0 3 -412z"/>
<path d="M18780 10870 l0 -600 430 0 430 0 0 120 0 120 -300 0 -300 0 0 480 0
480 -130 0 -130 0 0 -600z"/>
<path d="M19600 11350 l0 -120 185 0 185 0 0 -480 0 -480 130 0 130 0 0 480 0
480 180 0 180 0 0 120 0 120 -495 0 -495 0 0 -120z"/>
<path d="M20830 10870 l0 -600 130 0 130 0 0 600 0 600 -130 0 -130 0 0 -600z"/>
<path d="M21410 10870 l0 -600 130 0 130 0 2 381 3 380 290 -380 290 -381 107
0 108 0 0 600 0 600 -125 0 -125 0 0 -365 c0 -201 -3 -365 -7 -365 -5 1 -132
165 -283 365 l-275 364 -122 0 -123 1 0 -600z"/>
</g>
</svg>
